<?xml version="1.0" encoding="UTF-8" standalone="no"?>
<!DOCTYPE svg PUBLIC "-//W3C//DTD SVG 1.1//EN" "http://www.w3.org/Graphics/SVG/1.1/DTD/svg11.dtd">
<svg version="1.1" xmlns="http://www.w3.org/2000/svg" xmlns:xlink="http://www.w3.org/1999/xlink" preserveAspectRatio="xMidYMid meet" viewBox="0 0 645.12 115.2" width="645.12" height="115.2"><defs><path d="M0 115.2L645.12 115.2L645.12 0L0 0L0 115.2Z" id="b2VjqEfMBi"></path><linearGradient id="gradientc1fodfk3j9" gradientUnits="userSpaceOnUse" x1="322.56" y1="115.2" x2="322.56" y2="0"><stop style="stop-color: #3fb0ff;stop-opacity: 1" offset="0%"></stop><stop style="stop-color: #0034dd;stop-opacity: 1" offset="100%"></stop></linearGradient><path d="M155.77 21.66C150.93 14.65 149.06 13.14 145.82 9.77C137.07 0.67 136.32 -4.47 122.76 -9.36C109.2 -14.25 100.98 -13.61 91.59 -9.81C85.32 -7.27 77.04 -0.66 66.75 10.02L34.64 22.51C35.98 19.63 41.02 11.81 49.78 -0.95C58.55 -13.71 69.28 -22.81 81.99 -28.25C95.43 -34.72 108.3 -36.65 120.61 -34.03C139.08 -30.09 148.02 -21.32 157.56 -13.02C163.92 -7.49 172.27 4.92 182.59 24.2L165.18 37.8C162.14 31.71 159 26.33 155.77 21.66Z" id="h1t86XTTSg"></path><path d="" id="h4PZRIK3nD"></path><path d="M104.96 11.56C84.64 6.69 66.57 7.01 50.76 12.51C27.05 20.77 24.18 25.27 10.22 40.51C0.91 50.66 -4.19 61.64 -5.09 73.44L3.16 97.83C6.97 87.52 13.18 76.66 21.76 65.24C34.64 48.11 49.65 38.3 61.2 35.39C72.74 32.48 93.48 35.15 118.77 43.46C135.63 48.99 151 54.43 164.86 59.77L168.63 33.33L104.96 11.56Z" id="dhDrV9Cjo"></path><path d="M181 122.42C208.1 151.16 243.69 159.01 260.42 139.94C277.16 120.86 268.75 82.04 241.65 53.29C214.56 24.54 178.97 16.69 162.23 35.77C145.49 54.85 153.9 93.67 181 122.42Z" id="a28PSfagEt"></path><path d="M260.42 139.94L268.81 130.38L170.62 26.21L162.23 35.77L260.42 139.94Z" id="a3I8dTaOx9"></path><path d="M186.88 115.72C213.98 144.46 249.57 152.31 266.3 133.24C283.04 114.16 274.63 75.33 247.53 46.59C220.44 17.84 184.85 9.99 168.11 29.07C151.37 48.15 159.78 86.97 186.88 115.72Z" id="f1u6WwjDVd"></path><path d="M188.48 113.9C214.15 141.13 247.86 148.57 263.72 130.49C279.58 112.42 271.61 75.64 245.94 48.41C220.27 21.17 186.55 13.74 170.7 31.81C154.84 49.88 162.81 86.66 188.48 113.9Z" id="a2XRbdNxAg"></path><path d="M188.3 114.08C212.6 139.86 244.52 146.9 259.53 129.79C274.54 112.69 267 77.86 242.7 52.08C218.39 26.3 186.48 19.26 171.47 36.37C156.46 53.48 164 88.3 188.3 114.08Z" id="a2fD5kKKJ0"></path><path d="M24.07 59.85C15.46 69.94 8.66 82.33 3.66 97.04L21.12 80.7C28.88 72.34 33.34 67.45 34.5 66.02C36.16 63.98 39.65 60.49 44.45 53.63C47.52 49.24 51.15 43.54 55.33 36.54C43.1 42 32.68 49.77 24.07 59.85Z" id="b1Dvb52Dmc"></path></defs><g><g><g><g></g><use xlink:href="#b2VjqEfMBi" opacity="1" fill="url(#gradientc1fodfk3j9)"></use><g><use xlink:href="#b2VjqEfMBi" opacity="1" fill-opacity="0" stroke="#baf97b" stroke-width="1" stroke-opacity="0"></use></g><g></g></g><g><g><filter id="shadow1042491" x="25.64" y="-44.16" width="166.95" height="91.96" filterUnits="userSpaceOnUse" primitiveUnits="userSpaceOnUse"><feFlood></feFlood><feComposite in2="SourceAlpha" operator="in"></feComposite><feGaussianBlur stdDeviation="1"></feGaussianBlur><feOffset dx="1" dy="1" result="afterOffset"></feOffset><feFlood flood-color="#000000" flood-opacity="0.08"></feFlood><feComposite in2="afterOffset" operator="in"></feComposite><feMorphology operator="dilate" radius="1"></feMorphology><feComposite in2="SourceAlpha" operator="out"></feComposite></filter><path d="M155.77 21.66C150.93 14.65 149.06 13.14 145.82 9.77C137.07 0.67 136.32 -4.47 122.76 -9.36C109.2 -14.25 100.98 -13.61 91.59 -9.81C85.32 -7.27 77.04 -0.66 66.75 10.02L34.64 22.51C35.98 19.63 41.02 11.81 49.78 -0.95C58.55 -13.71 69.28 -22.81 81.99 -28.25C95.43 -34.72 108.3 -36.65 120.61 -34.03C139.08 -30.09 148.02 -21.32 157.56 -13.02C163.92 -7.49 172.27 4.92 182.59 24.2L165.18 37.8C162.14 31.71 159 26.33 155.77 21.66Z" id="b1R3Sgs53u" fill="white" fill-opacity="1" filter="url(#shadow1042491)"></path></g><use xlink:href="#h1t86XTTSg" opacity="1" fill="#980000" fill-opacity="1"></use><g><use xlink:href="#h1t86XTTSg" opacity="1" fill-opacity="0" stroke="#000000" stroke-width="1" stroke-opacity="0"></use></g></g><g><g><filter id="shadow2888515" x="54.14" y="101.11" width="19" height="19" filterUnits="userSpaceOnUse" primitiveUnits="userSpaceOnUse"><feFlood></feFlood><feComposite in2="SourceAlpha" operator="in"></feComposite><feGaussianBlur stdDeviation="1"></feGaussianBlur><feOffset dx="1" dy="1" result="afterOffset"></feOffset><feFlood flood-color="#000000" flood-opacity="0.08"></feFlood><feComposite in2="afterOffset" operator="in"></feComposite><feMorphology operator="dilate" radius="1"></feMorphology><feComposite in2="SourceAlpha" operator="out"></feComposite></filter><path d="" id="a2SklBFgd8" fill="none" stroke="white" filter="url(#shadow2888515)"></path></g><g><use xlink:href="#h4PZRIK3nD" opacity="1" fill-opacity="0" stroke="#000000" stroke-width="1" stroke-opacity="1"></use></g></g><g><g><filter id="shadow7913415" x="-14.09" y="-0.87" width="192.71" height="108.7" filterUnits="userSpaceOnUse" primitiveUnits="userSpaceOnUse"><feFlood></feFlood><feComposite in2="SourceAlpha" operator="in"></feComposite><feGaussianBlur stdDeviation="1"></feGaussianBlur><feOffset dx="1" dy="1" result="afterOffset"></feOffset><feFlood flood-color="#000000" flood-opacity="0.08"></feFlood><feComposite in2="afterOffset" operator="in"></feComposite><feMorphology operator="dilate" radius="1"></feMorphology><feComposite in2="SourceAlpha" operator="out"></feComposite></filter><path d="M104.96 11.56C84.64 6.69 66.57 7.01 50.76 12.51C27.05 20.77 24.18 25.27 10.22 40.51C0.91 50.66 -4.19 61.64 -5.09 73.44L3.16 97.83C6.97 87.52 13.18 76.66 21.76 65.24C34.64 48.11 49.65 38.3 61.2 35.39C72.74 32.48 93.48 35.15 118.77 43.46C135.63 48.99 151 54.43 164.86 59.77L168.63 33.33L104.96 11.56Z" id="a4UM5ZeQvY" fill="white" fill-opacity="1" filter="url(#shadow7913415)"></path></g><use xlink:href="#dhDrV9Cjo" opacity="1" fill="#c20000" fill-opacity="1"></use><g><use xlink:href="#dhDrV9Cjo" opacity="1" fill-opacity="0" stroke="#000000" stroke-width="1" stroke-opacity="0"></use></g></g><g><g><filter id="shadow11601559" x="144.62" y="16.35" width="134.41" height="144.01" filterUnits="userSpaceOnUse" primitiveUnits="userSpaceOnUse"><feFlood></feFlood><feComposite in2="SourceAlpha" operator="in"></feComposite><feGaussianBlur stdDeviation="1"></feGaussianBlur><feOffset dx="1" dy="1" result="afterOffset"></feOffset><feFlood flood-color="#000000" flood-opacity="0.08"></feFlood><feComposite in2="afterOffset" operator="in"></feComposite><feMorphology operator="dilate" radius="1"></feMorphology><feComposite in2="SourceAlpha" operator="out"></feComposite></filter><path d="M181 122.42C208.1 151.16 243.69 159.01 260.42 139.94C277.16 120.86 268.75 82.04 241.65 53.29C214.56 24.54 178.97 16.69 162.23 35.77C145.49 54.85 153.9 93.67 181 122.42Z" id="aSotPIBu0" fill="white" fill-opacity="1" filter="url(#shadow11601559)"></path></g><use xlink:href="#a28PSfagEt" opacity="1" fill="#ffc53a" fill-opacity="1"></use></g><g><g><filter id="shadow2527654" x="153.23" y="17.21" width="125.58" height="132.72" filterUnits="userSpaceOnUse" primitiveUnits="userSpaceOnUse"><feFlood></feFlood><feComposite in2="SourceAlpha" operator="in"></feComposite><feGaussianBlur stdDeviation="1"></feGaussianBlur><feOffset dx="1" dy="1" result="afterOffset"></feOffset><feFlood flood-color="#000000" flood-opacity="0.08"></feFlood><feComposite in2="afterOffset" operator="in"></feComposite><feMorphology operator="dilate" radius="1"></feMorphology><feComposite in2="SourceAlpha" operator="out"></feComposite></filter><path d="M260.42 139.94L268.81 130.38L170.62 26.21L162.23 35.77L260.42 139.94Z" id="dkYaK5cxn" fill="white" fill-opacity="1" filter="url(#shadow2527654)"></path></g><use xlink:href="#a3I8dTaOx9" opacity="1" fill="#ffc53a" fill-opacity="1"></use><g><use xlink:href="#a3I8dTaOx9" opacity="1" fill-opacity="0" stroke="#000000" stroke-width="1" stroke-opacity="0"></use></g></g><g><g><filter id="shadow5886356" x="150.5" y="9.65" width="134.41" height="144.01" filterUnits="userSpaceOnUse" primitiveUnits="userSpaceOnUse"><feFlood></feFlood><feComposite in2="SourceAlpha" operator="in"></feComposite><feGaussianBlur stdDeviation="1"></feGaussianBlur><feOffset dx="1" dy="1" result="afterOffset"></feOffset><feFlood flood-color="#000000" flood-opacity="0.08"></feFlood><feComposite in2="afterOffset" operator="in"></feComposite><feMorphology operator="dilate" radius="1"></feMorphology><feComposite in2="SourceAlpha" operator="out"></feComposite></filter><path d="M186.88 115.72C213.98 144.46 249.57 152.31 266.3 133.24C283.04 114.16 274.63 75.33 247.53 46.59C220.44 17.84 184.85 9.99 168.11 29.07C151.37 48.15 159.78 86.97 186.88 115.72Z" id="a4X0aXUhFH" fill="white" fill-opacity="1" filter="url(#shadow5886356)"></path></g><use xlink:href="#f1u6WwjDVd" opacity="1" fill="#ffed3a" fill-opacity="1"></use></g><g><g><filter id="shadow2742462" x="153.54" y="12.94" width="128.34" height="137.43" filterUnits="userSpaceOnUse" primitiveUnits="userSpaceOnUse"><feFlood></feFlood><feComposite in2="SourceAlpha" operator="in"></feComposite><feGaussianBlur stdDeviation="1"></feGaussianBlur><feOffset dx="1" dy="1" result="afterOffset"></feOffset><feFlood flood-color="#000000" flood-opacity="0.08"></feFlood><feComposite in2="afterOffset" operator="in"></feComposite><feMorphology operator="dilate" radius="1"></feMorphology><feComposite in2="SourceAlpha" operator="out"></feComposite></filter><path d="M188.48 113.9C214.15 141.13 247.86 148.57 263.72 130.49C279.58 112.42 271.61 75.64 245.94 48.41C220.27 21.17 186.55 13.74 170.7 31.81C154.84 49.88 162.81 86.66 188.48 113.9Z" id="e4TZeDmv6l" fill="white" fill-opacity="1" filter="url(#shadow2742462)"></path></g><use xlink:href="#a2XRbdNxAg" opacity="1" fill="#ffc53a" fill-opacity="1"></use></g><g><g><filter id="shadow12225085" x="154.74" y="18.02" width="122.51" height="131.12" filterUnits="userSpaceOnUse" primitiveUnits="userSpaceOnUse"><feFlood></feFlood><feComposite in2="SourceAlpha" operator="in"></feComposite><feGaussianBlur stdDeviation="1"></feGaussianBlur><feOffset dx="1" dy="1" result="afterOffset"></feOffset><feFlood flood-color="#000000" flood-opacity="0.08"></feFlood><feComposite in2="afterOffset" operator="in"></feComposite><feMorphology operator="dilate" radius="1"></feMorphology><feComposite in2="SourceAlpha" operator="out"></feComposite></filter><path d="M188.3 114.08C212.6 139.86 244.52 146.9 259.53 129.79C274.54 112.69 267 77.86 242.7 52.08C218.39 26.3 186.48 19.26 171.47 36.37C156.46 53.48 164 88.3 188.3 114.08Z" id="iorDMEkZ8" fill="white" fill-opacity="1" filter="url(#shadow12225085)"></path></g><use xlink:href="#a2fD5kKKJ0" opacity="1" fill="#ffed3a" fill-opacity="1"></use></g><g><g><filter id="shadow9005448" x="-5.34" y="27.54" width="70.67" height="79.5" filterUnits="userSpaceOnUse" primitiveUnits="userSpaceOnUse"><feFlood></feFlood><feComposite in2="SourceAlpha" operator="in"></feComposite><feGaussianBlur stdDeviation="1"></feGaussianBlur><feOffset dx="1" dy="1" result="afterOffset"></feOffset><feFlood flood-color="#000000" flood-opacity="0.08"></feFlood><feComposite in2="afterOffset" operator="in"></feComposite><feMorphology operator="dilate" radius="1"></feMorphology><feComposite in2="SourceAlpha" operator="out"></feComposite></filter><path d="M24.07 59.85C15.46 69.94 8.66 82.33 3.66 97.04L21.12 80.7C28.88 72.34 33.34 67.45 34.5 66.02C36.16 63.98 39.65 60.49 44.45 53.63C47.52 49.24 51.15 43.54 55.33 36.54C43.1 42 32.68 49.77 24.07 59.85Z" id="f3gc3R9jPz" fill="white" fill-opacity="1" filter="url(#shadow9005448)"></path></g><use xlink:href="#b1Dvb52Dmc" opacity="1" fill="#660000" fill-opacity="1"></use><g><use xlink:href="#b1Dvb52Dmc" opacity="1" fill-opacity="0" stroke="#000000" stroke-width="1" stroke-opacity="0"></use></g></g></g></g></svg>